<svg xmlns="http://www.w3.org/2000/svg" viewBox="0 0 105.69 113.18"><defs><style>.a,.b,.d,.e{fill:none;stroke:#231f20;}.a,.b,.d{stroke-miterlimit:10;}.a{stroke-width:10px;}.b,.d,.e{stroke-linecap:round;}.b{stroke-width:5px;}.c{fill:#231f20;}.d{stroke-width:8px;}.e{stroke-linejoin:round;stroke-width:6px;}</style></defs><title>asdfasdf</title><rect class="a" x="5" y="12.49" width="95.69" height="95.69" rx="12" ry="12"/><line class="b" x1="5.42" y1="40.67" x2="100.93" y2="40.67"/><path class="c" d="M67.92,58.81v7.83H60.08V58.81h7.84m.35-4H59.73a3.65,3.65,0,0,0-3.65,3.64V67a3.65,3.65,0,0,0,3.65,3.65h8.54A3.65,3.65,0,0,0,71.92,67V58.45a3.65,3.65,0,0,0-3.65-3.64Z" transform="translate(-11.15 -3.67)"/><path class="c" d="M95,58.81v7.83H87.19V58.81H95m.35-4H86.83a3.64,3.64,0,0,0-3.64,3.64V67a3.64,3.64,0,0,0,3.64,3.65h8.54A3.64,3.64,0,0,0,99,67V58.45a3.64,3.64,0,0,0-3.65-3.64Z" transform="translate(-11.15 -3.67)"/><path class="c" d="M40.81,58.81v7.83H33V58.81h7.83m.36-4H32.63A3.64,3.64,0,0,0,29,58.45V67a3.64,3.64,0,0,0,3.65,3.65h8.54A3.64,3.64,0,0,0,44.81,67V58.45a3.64,3.64,0,0,0-3.64-3.64Z" transform="translate(-11.15 -3.67)"/><path class="c" d="M68.28,85.25v7.83H60.44V85.25h7.84m.35-4H60.09a3.65,3.65,0,0,0-3.65,3.65v8.54a3.65,3.65,0,0,0,3.65,3.64h8.54a3.64,3.64,0,0,0,3.65-3.64V84.9a3.64,3.64,0,0,0-3.65-3.65Z" transform="translate(-11.15 -3.67)"/><path class="c" d="M41.17,85.25v7.83H33.34V85.25h7.83m.36-4H33a3.64,3.64,0,0,0-3.65,3.65v8.54A3.64,3.64,0,0,0,33,97.08h8.54a3.64,3.64,0,0,0,3.64-3.64V84.9a3.64,3.64,0,0,0-3.64-3.65Z" transform="translate(-11.15 -3.67)"/><line class="d" x1="28.69" y1="4" x2="28.69" y2="11.65"/><line class="d" x1="77.33" y1="4" x2="77.33" y2="11.65"/><line class="e" x1="20.38" y1="27.75" x2="48.15" y2="27.75"/></svg>