<svg xmlns="http://www.w3.org/2000/svg" viewBox="0 0 112.92 112.92"><defs><style>.a{fill:#231f20;}</style></defs><title>temp</title><path class="a" d="M103.46,7.54H24.54a17,17,0,0,0-17,17v78.92a17,17,0,0,0,17,17h78.92a17,17,0,0,0,17-17V24.54A17,17,0,0,0,103.46,7.54Zm7,95.92a7,7,0,0,1-7,7H24.54a7,7,0,0,1-7-7V39.14l44.6,23.45a4,4,0,0,0,3.72,0l44.6-23.45Zm0-74.36L64,53.53,17.54,29.1V24.54a7,7,0,0,1,7-7h78.92a7,7,0,0,1,7,7Z" transform="translate(-7.54 -7.54)"/><text x="-7.54" y="-7.54"></text><path class="a" d="M99.29,103.36H69a5,5,0,0,1,0-10H99.29a5,5,0,0,1,0,10Z" transform="translate(-7.54 -7.54)"/></svg>