<svg xmlns="http://www.w3.org/2000/svg" viewBox="0 0 313 128"><defs><style>.a,.b,.d,.e{fill:none;stroke:#231f20;}.a,.b,.d{stroke-miterlimit:10;}.a{stroke-width:10px;}.b,.d,.e{stroke-linecap:round;}.b{stroke-width:5px;}.c{fill:#231f20;}.d{stroke-width:8px;}.e{stroke-linejoin:round;stroke-width:6px;}</style></defs><title>logo</title><rect class="a" x="17.73" y="18.7" width="95.69" height="95.69" rx="12" ry="12"/><line class="b" x1="18.15" y1="46.88" x2="113.66" y2="46.88"/><path class="c" d="M69.49,61.35v7.83H61.66V61.35h7.83m.36-4H61.31A3.64,3.64,0,0,0,57.66,61v8.54a3.64,3.64,0,0,0,3.65,3.64h8.54a3.64,3.64,0,0,0,3.64-3.64V61a3.64,3.64,0,0,0-3.64-3.65Z"/><path class="c" d="M96.6,61.35v7.83H88.76V61.35H96.6m.35-4H88.41A3.65,3.65,0,0,0,84.76,61v8.54a3.65,3.65,0,0,0,3.65,3.64H97a3.65,3.65,0,0,0,3.65-3.64V61A3.65,3.65,0,0,0,97,57.35Z"/><path class="c" d="M42.39,61.35v7.83H34.55V61.35h7.84m.35-4H34.2A3.65,3.65,0,0,0,30.55,61v8.54a3.65,3.65,0,0,0,3.65,3.64h8.54a3.64,3.64,0,0,0,3.65-3.64V61a3.64,3.64,0,0,0-3.65-3.65Z"/><path class="c" d="M69.86,87.79v7.84H62V87.79h7.84m.35-4H61.67A3.64,3.64,0,0,0,58,87.44V96a3.65,3.65,0,0,0,3.65,3.65h8.54A3.66,3.66,0,0,0,73.86,96V87.44a3.65,3.65,0,0,0-3.65-3.65Z"/><path class="c" d="M42.75,87.79v7.84H34.92V87.79h7.83m.35-4H34.56a3.64,3.64,0,0,0-3.64,3.65V96a3.65,3.65,0,0,0,3.64,3.65H43.1A3.65,3.65,0,0,0,46.75,96V87.44a3.64,3.64,0,0,0-3.65-3.65Z"/><line class="d" x1="41.42" y1="10.21" x2="41.42" y2="17.86"/><line class="d" x1="90.06" y1="10.21" x2="90.06" y2="17.86"/><line class="e" x1="33.1" y1="33.96" x2="60.88" y2="33.96"/><path class="c" d="M157.25,38.19h-11.9v7.69h13.29v6H138V19.52h20v6H145.35v6.72h11.9Z"/><path class="c" d="M168.24,28.4l3.17,10.9A52,52,0,0,1,172.75,45h.15c.38-1.92.77-3.7,1.29-5.71l3-10.9h7.68l-8.74,23.48h-7.3L160.32,28.4Z"/><path class="c" d="M193.15,42.47c.24,3,3.22,4.46,6.63,4.46a20.54,20.54,0,0,0,6.48-1l1,5a23.16,23.16,0,0,1-8.5,1.48c-8,0-12.53-4.65-12.53-12,0-5.95,3.7-12.53,11.86-12.53,7.58,0,10.46,5.91,10.46,11.72a17,17,0,0,1-.24,2.88Zm8.6-5c0-1.77-.77-4.75-4.13-4.75-3.08,0-4.32,2.79-4.51,4.75Z"/><path class="c" d="M212.88,35.89c0-2.93-.1-5.42-.19-7.49H219l.33,3.22h.14a8.59,8.59,0,0,1,7.25-3.75c4.8,0,8.4,3.17,8.4,10.08V51.88h-7.29v-13c0-3-1.06-5.09-3.7-5.09a3.91,3.91,0,0,0-3.7,2.73,5.29,5.29,0,0,0-.28,1.83V51.88h-7.3Z"/><path class="c" d="M248.88,22V28.4h5.23v5.38h-5.23v8.49c0,2.84.67,4.13,2.88,4.13a8.92,8.92,0,0,0,2.16-.19l.05,5.52a13.94,13.94,0,0,1-4.75.67,7.64,7.64,0,0,1-5.48-2.06c-1.34-1.39-2-3.65-2-7v-9.6h-3.12V28.4h3.12V24Z"/><path class="c" d="M138,77.55a60.49,60.49,0,0,1,9.89-.67c4.51,0,7.73.87,9.89,2.59A9.49,9.49,0,0,1,161.24,87a10.33,10.33,0,0,1-3,7.68c-2.5,2.35-6.19,3.41-10.51,3.41a19.58,19.58,0,0,1-2.5-.14v11.57H138Zm7.25,14.69a10.81,10.81,0,0,0,2.45.19c3.89,0,6.29-2,6.29-5.28,0-3-2.07-4.75-5.72-4.75a12.67,12.67,0,0,0-3,.29Z"/><path class="c" d="M165.65,75.39h7.29v34.09h-7.29Z"/><path class="c" d="M198.43,103.76a36.4,36.4,0,0,0,.34,5.72h-6.58l-.43-2.36h-.14A8.44,8.44,0,0,1,184.9,110a7.19,7.19,0,0,1-7.59-7.2c0-6.09,5.47-9,13.78-9v-.34c0-1.25-.67-3-4.27-3a13.18,13.18,0,0,0-6.48,1.77L179,87.54a19.39,19.39,0,0,1,9.12-2.07c7.83,0,10.32,4.61,10.32,10.13Zm-7.1-5.37c-3.84,0-6.82.86-6.82,3.69a2.62,2.62,0,0,0,2.88,2.79,4,4,0,0,0,3.8-2.69,5.63,5.63,0,0,0,.14-1.25Z"/><path class="c" d="M204.19,93.49c0-2.93-.09-5.42-.19-7.49h6.34l.33,3.22h.15a8.59,8.59,0,0,1,7.25-3.75c4.79,0,8.4,3.17,8.4,10.08v13.93h-7.3v-13c0-3-1.06-5.09-3.7-5.09a3.89,3.89,0,0,0-3.69,2.73,5.06,5.06,0,0,0-.29,1.83v13.54h-7.3Z"/><path class="c" d="M232.32,93.49c0-2.93-.1-5.42-.19-7.49h6.33l.34,3.22h.14a8.59,8.59,0,0,1,7.25-3.75c4.8,0,8.4,3.17,8.4,10.08v13.93H247.3v-13c0-3-1.06-5.09-3.7-5.09a3.9,3.9,0,0,0-3.7,2.73,5.29,5.29,0,0,0-.28,1.83v13.54h-7.3Z"/><path class="c" d="M266.06,100.07c.24,3,3.22,4.46,6.63,4.46a20.49,20.49,0,0,0,6.48-1l1,5a23.16,23.16,0,0,1-8.5,1.48c-8,0-12.53-4.65-12.53-12,0-6,3.7-12.53,11.86-12.53,7.58,0,10.47,5.91,10.47,11.72a18.14,18.14,0,0,1-.24,2.88Zm8.6-5c0-1.77-.77-4.75-4.13-4.75-3.07,0-4.32,2.79-4.51,4.75Z"/><path class="c" d="M285.79,93.73c0-3.46-.1-5.71-.19-7.73h6.29l.24,4.32h.19a6.89,6.89,0,0,1,6.34-4.85,7.18,7.18,0,0,1,1.53.1v6.91a7.5,7.5,0,0,0-2-.24c-2.68,0-4.51,1.44-5,3.7a9.09,9.09,0,0,0-.14,1.63v11.91h-7.3Z"/></svg>